<mxfile host="app.diagrams.net" modified="2022-06-09T20:00:28.323Z" agent="5.0 (Windows NT 10.0; Win64; x64) AppleWebKit/537.36 (KHTML, like Gecko) Chrome/102.0.5005.63 Safari/537.36" etag="ye_hrUS8SLV0y8DTmoMe" version="19.0.3" type="github">
  <diagram id="EQ8woBiKgKuUdljxtfaW" name="Page-1">
    <mxGraphModel dx="1483" dy="770" grid="1" gridSize="10" guides="1" tooltips="1" connect="1" arrows="1" fold="1" page="1" pageScale="1" pageWidth="850" pageHeight="1100" math="0" shadow="0">
      <root>
        <mxCell id="0" />
        <mxCell id="1" parent="0" />
        <mxCell id="PDaBnYN8Vk6k7MnPb_Y9-51" style="edgeStyle=orthogonalEdgeStyle;rounded=0;orthogonalLoop=1;jettySize=auto;html=1;exitX=1;exitY=0.5;exitDx=0;exitDy=0;" edge="1" parent="1" source="PDaBnYN8Vk6k7MnPb_Y9-2" target="PDaBnYN8Vk6k7MnPb_Y9-40">
          <mxGeometry relative="1" as="geometry" />
        </mxCell>
        <mxCell id="PDaBnYN8Vk6k7MnPb_Y9-2" value="Docker Image" style="swimlane;" vertex="1" parent="1">
          <mxGeometry x="10" y="250" width="205" height="200" as="geometry" />
        </mxCell>
        <mxCell id="PDaBnYN8Vk6k7MnPb_Y9-3" value="" style="verticalLabelPosition=bottom;html=1;verticalAlign=top;align=center;strokeColor=none;fillColor=#00BEF2;shape=mxgraph.azure.operating_system_image;" vertex="1" parent="PDaBnYN8Vk6k7MnPb_Y9-2">
          <mxGeometry x="150" y="150" width="50" height="50" as="geometry" />
        </mxCell>
        <mxCell id="PDaBnYN8Vk6k7MnPb_Y9-1" value="" style="sketch=0;aspect=fixed;html=1;points=[];align=center;image;fontSize=12;image=img/lib/mscae/Docker.svg;" vertex="1" parent="PDaBnYN8Vk6k7MnPb_Y9-2">
          <mxGeometry x="80" y="150" width="50" height="41" as="geometry" />
        </mxCell>
        <mxCell id="PDaBnYN8Vk6k7MnPb_Y9-5" value="" style="shape=image;html=1;verticalAlign=top;verticalLabelPosition=bottom;labelBackgroundColor=#ffffff;imageAspect=0;aspect=fixed;image=https://cdn2.iconfinder.com/data/icons/boxicons-logos/24/bxl-flask-128.png" vertex="1" parent="PDaBnYN8Vk6k7MnPb_Y9-2">
          <mxGeometry x="30" y="30" width="60" height="60" as="geometry" />
        </mxCell>
        <mxCell id="PDaBnYN8Vk6k7MnPb_Y9-6" value="" style="sketch=0;html=1;dashed=0;whitespace=wrap;fillColor=#2875E2;strokeColor=#ffffff;points=[[0.005,0.63,0],[0.1,0.2,0],[0.9,0.2,0],[0.5,0,0],[0.995,0.63,0],[0.72,0.99,0],[0.5,1,0],[0.28,0.99,0]];shape=mxgraph.kubernetes.icon;prIcon=api" vertex="1" parent="PDaBnYN8Vk6k7MnPb_Y9-2">
          <mxGeometry y="130" width="80" height="70" as="geometry" />
        </mxCell>
        <mxCell id="PDaBnYN8Vk6k7MnPb_Y9-7" value="" style="aspect=fixed;html=1;points=[];align=center;image;fontSize=12;image=img/lib/azure2/general/Scheduler.svg;" vertex="1" parent="PDaBnYN8Vk6k7MnPb_Y9-2">
          <mxGeometry x="123" y="30" width="48" height="48" as="geometry" />
        </mxCell>
        <mxCell id="PDaBnYN8Vk6k7MnPb_Y9-8" value="Job Scheduler" style="text;html=1;align=center;verticalAlign=middle;resizable=0;points=[];autosize=1;strokeColor=none;fillColor=none;" vertex="1" parent="PDaBnYN8Vk6k7MnPb_Y9-2">
          <mxGeometry x="102" y="80" width="90" height="20" as="geometry" />
        </mxCell>
        <mxCell id="PDaBnYN8Vk6k7MnPb_Y9-9" value="Flask" style="text;html=1;align=center;verticalAlign=middle;resizable=0;points=[];autosize=1;strokeColor=none;fillColor=none;" vertex="1" parent="PDaBnYN8Vk6k7MnPb_Y9-2">
          <mxGeometry x="40" y="80" width="40" height="20" as="geometry" />
        </mxCell>
        <mxCell id="PDaBnYN8Vk6k7MnPb_Y9-18" value="Web-Software" style="swimlane;" vertex="1" parent="1">
          <mxGeometry x="489" y="10" width="205" height="200" as="geometry" />
        </mxCell>
        <mxCell id="PDaBnYN8Vk6k7MnPb_Y9-20" value="" style="sketch=0;aspect=fixed;html=1;points=[];align=center;image;fontSize=12;image=img/lib/mscae/Docker.svg;" vertex="1" parent="PDaBnYN8Vk6k7MnPb_Y9-18">
          <mxGeometry x="80" y="150" width="50" height="41" as="geometry" />
        </mxCell>
        <mxCell id="PDaBnYN8Vk6k7MnPb_Y9-21" value="" style="shape=image;html=1;verticalAlign=top;verticalLabelPosition=bottom;labelBackgroundColor=#ffffff;imageAspect=0;aspect=fixed;image=https://cdn2.iconfinder.com/data/icons/boxicons-logos/24/bxl-flask-128.png" vertex="1" parent="PDaBnYN8Vk6k7MnPb_Y9-18">
          <mxGeometry x="30" y="30" width="60" height="60" as="geometry" />
        </mxCell>
        <mxCell id="PDaBnYN8Vk6k7MnPb_Y9-22" value="" style="sketch=0;html=1;dashed=0;whitespace=wrap;fillColor=#2875E2;strokeColor=#ffffff;points=[[0.005,0.63,0],[0.1,0.2,0],[0.9,0.2,0],[0.5,0,0],[0.995,0.63,0],[0.72,0.99,0],[0.5,1,0],[0.28,0.99,0]];shape=mxgraph.kubernetes.icon;prIcon=api" vertex="1" parent="PDaBnYN8Vk6k7MnPb_Y9-18">
          <mxGeometry y="130" width="80" height="70" as="geometry" />
        </mxCell>
        <mxCell id="PDaBnYN8Vk6k7MnPb_Y9-23" value="" style="aspect=fixed;html=1;points=[];align=center;image;fontSize=12;image=img/lib/azure2/general/Scheduler.svg;" vertex="1" parent="PDaBnYN8Vk6k7MnPb_Y9-18">
          <mxGeometry x="123" y="30" width="48" height="48" as="geometry" />
        </mxCell>
        <mxCell id="PDaBnYN8Vk6k7MnPb_Y9-24" value="Job Scheduler" style="text;html=1;align=center;verticalAlign=middle;resizable=0;points=[];autosize=1;strokeColor=none;fillColor=none;" vertex="1" parent="PDaBnYN8Vk6k7MnPb_Y9-18">
          <mxGeometry x="102" y="80" width="90" height="20" as="geometry" />
        </mxCell>
        <mxCell id="PDaBnYN8Vk6k7MnPb_Y9-25" value="Flask" style="text;html=1;align=center;verticalAlign=middle;resizable=0;points=[];autosize=1;strokeColor=none;fillColor=none;" vertex="1" parent="PDaBnYN8Vk6k7MnPb_Y9-18">
          <mxGeometry x="40" y="80" width="40" height="20" as="geometry" />
        </mxCell>
        <mxCell id="PDaBnYN8Vk6k7MnPb_Y9-26" value="Web-Data" style="swimlane;" vertex="1" parent="1">
          <mxGeometry x="489" y="230" width="205" height="200" as="geometry" />
        </mxCell>
        <mxCell id="PDaBnYN8Vk6k7MnPb_Y9-27" value="" style="sketch=0;aspect=fixed;html=1;points=[];align=center;image;fontSize=12;image=img/lib/mscae/Docker.svg;" vertex="1" parent="PDaBnYN8Vk6k7MnPb_Y9-26">
          <mxGeometry x="80" y="150" width="50" height="41" as="geometry" />
        </mxCell>
        <mxCell id="PDaBnYN8Vk6k7MnPb_Y9-28" value="" style="shape=image;html=1;verticalAlign=top;verticalLabelPosition=bottom;labelBackgroundColor=#ffffff;imageAspect=0;aspect=fixed;image=https://cdn2.iconfinder.com/data/icons/boxicons-logos/24/bxl-flask-128.png" vertex="1" parent="PDaBnYN8Vk6k7MnPb_Y9-26">
          <mxGeometry x="30" y="30" width="60" height="60" as="geometry" />
        </mxCell>
        <mxCell id="PDaBnYN8Vk6k7MnPb_Y9-29" value="" style="sketch=0;html=1;dashed=0;whitespace=wrap;fillColor=#2875E2;strokeColor=#ffffff;points=[[0.005,0.63,0],[0.1,0.2,0],[0.9,0.2,0],[0.5,0,0],[0.995,0.63,0],[0.72,0.99,0],[0.5,1,0],[0.28,0.99,0]];shape=mxgraph.kubernetes.icon;prIcon=api" vertex="1" parent="PDaBnYN8Vk6k7MnPb_Y9-26">
          <mxGeometry y="130" width="80" height="70" as="geometry" />
        </mxCell>
        <mxCell id="PDaBnYN8Vk6k7MnPb_Y9-30" value="" style="aspect=fixed;html=1;points=[];align=center;image;fontSize=12;image=img/lib/azure2/general/Scheduler.svg;" vertex="1" parent="PDaBnYN8Vk6k7MnPb_Y9-26">
          <mxGeometry x="123" y="30" width="48" height="48" as="geometry" />
        </mxCell>
        <mxCell id="PDaBnYN8Vk6k7MnPb_Y9-31" value="Job Scheduler" style="text;html=1;align=center;verticalAlign=middle;resizable=0;points=[];autosize=1;strokeColor=none;fillColor=none;" vertex="1" parent="PDaBnYN8Vk6k7MnPb_Y9-26">
          <mxGeometry x="102" y="80" width="90" height="20" as="geometry" />
        </mxCell>
        <mxCell id="PDaBnYN8Vk6k7MnPb_Y9-32" value="Flask" style="text;html=1;align=center;verticalAlign=middle;resizable=0;points=[];autosize=1;strokeColor=none;fillColor=none;" vertex="1" parent="PDaBnYN8Vk6k7MnPb_Y9-26">
          <mxGeometry x="40" y="80" width="40" height="20" as="geometry" />
        </mxCell>
        <mxCell id="PDaBnYN8Vk6k7MnPb_Y9-33" value="Web-Salesforce" style="swimlane;" vertex="1" parent="1">
          <mxGeometry x="489" y="450" width="205" height="200" as="geometry" />
        </mxCell>
        <mxCell id="PDaBnYN8Vk6k7MnPb_Y9-34" value="" style="sketch=0;aspect=fixed;html=1;points=[];align=center;image;fontSize=12;image=img/lib/mscae/Docker.svg;" vertex="1" parent="PDaBnYN8Vk6k7MnPb_Y9-33">
          <mxGeometry x="80" y="150" width="50" height="41" as="geometry" />
        </mxCell>
        <mxCell id="PDaBnYN8Vk6k7MnPb_Y9-35" value="" style="shape=image;html=1;verticalAlign=top;verticalLabelPosition=bottom;labelBackgroundColor=#ffffff;imageAspect=0;aspect=fixed;image=https://cdn2.iconfinder.com/data/icons/boxicons-logos/24/bxl-flask-128.png" vertex="1" parent="PDaBnYN8Vk6k7MnPb_Y9-33">
          <mxGeometry x="30" y="30" width="60" height="60" as="geometry" />
        </mxCell>
        <mxCell id="PDaBnYN8Vk6k7MnPb_Y9-36" value="" style="sketch=0;html=1;dashed=0;whitespace=wrap;fillColor=#2875E2;strokeColor=#ffffff;points=[[0.005,0.63,0],[0.1,0.2,0],[0.9,0.2,0],[0.5,0,0],[0.995,0.63,0],[0.72,0.99,0],[0.5,1,0],[0.28,0.99,0]];shape=mxgraph.kubernetes.icon;prIcon=api" vertex="1" parent="PDaBnYN8Vk6k7MnPb_Y9-33">
          <mxGeometry y="130" width="80" height="70" as="geometry" />
        </mxCell>
        <mxCell id="PDaBnYN8Vk6k7MnPb_Y9-37" value="" style="aspect=fixed;html=1;points=[];align=center;image;fontSize=12;image=img/lib/azure2/general/Scheduler.svg;" vertex="1" parent="PDaBnYN8Vk6k7MnPb_Y9-33">
          <mxGeometry x="123" y="30" width="48" height="48" as="geometry" />
        </mxCell>
        <mxCell id="PDaBnYN8Vk6k7MnPb_Y9-38" value="Job Scheduler" style="text;html=1;align=center;verticalAlign=middle;resizable=0;points=[];autosize=1;strokeColor=none;fillColor=none;" vertex="1" parent="PDaBnYN8Vk6k7MnPb_Y9-33">
          <mxGeometry x="102" y="80" width="90" height="20" as="geometry" />
        </mxCell>
        <mxCell id="PDaBnYN8Vk6k7MnPb_Y9-39" value="Flask" style="text;html=1;align=center;verticalAlign=middle;resizable=0;points=[];autosize=1;strokeColor=none;fillColor=none;" vertex="1" parent="PDaBnYN8Vk6k7MnPb_Y9-33">
          <mxGeometry x="40" y="80" width="40" height="20" as="geometry" />
        </mxCell>
        <mxCell id="PDaBnYN8Vk6k7MnPb_Y9-44" style="rounded=0;orthogonalLoop=1;jettySize=auto;html=1;exitX=1;exitY=0.25;exitDx=0;exitDy=0;entryX=0;entryY=0.5;entryDx=0;entryDy=0;" edge="1" parent="1" source="PDaBnYN8Vk6k7MnPb_Y9-40" target="PDaBnYN8Vk6k7MnPb_Y9-18">
          <mxGeometry relative="1" as="geometry">
            <mxPoint x="353" y="327.5999999999999" as="sourcePoint" />
          </mxGeometry>
        </mxCell>
        <mxCell id="PDaBnYN8Vk6k7MnPb_Y9-45" style="rounded=0;orthogonalLoop=1;jettySize=auto;html=1;exitX=1;exitY=0.5;exitDx=0;exitDy=0;" edge="1" parent="1" source="PDaBnYN8Vk6k7MnPb_Y9-40">
          <mxGeometry relative="1" as="geometry">
            <mxPoint x="353" y="350" as="sourcePoint" />
            <mxPoint x="489" y="350" as="targetPoint" />
          </mxGeometry>
        </mxCell>
        <mxCell id="PDaBnYN8Vk6k7MnPb_Y9-46" style="rounded=0;orthogonalLoop=1;jettySize=auto;html=1;exitX=1;exitY=0.75;exitDx=0;exitDy=0;entryX=0;entryY=0.5;entryDx=0;entryDy=0;" edge="1" parent="1" source="PDaBnYN8Vk6k7MnPb_Y9-40" target="PDaBnYN8Vk6k7MnPb_Y9-33">
          <mxGeometry relative="1" as="geometry">
            <mxPoint x="353" y="381.9999999999998" as="sourcePoint" />
          </mxGeometry>
        </mxCell>
        <mxCell id="PDaBnYN8Vk6k7MnPb_Y9-40" value="" style="shape=image;html=1;verticalAlign=top;verticalLabelPosition=bottom;labelBackgroundColor=#ffffff;imageAspect=0;aspect=fixed;image=https://cdn0.iconfinder.com/data/icons/social-media-2127/48/social_media_social_media_logo_docker-128.png" vertex="1" parent="1">
          <mxGeometry x="265" y="286" width="128" height="128" as="geometry" />
        </mxCell>
        <mxCell id="PDaBnYN8Vk6k7MnPb_Y9-41" value="Docker Compose" style="text;html=1;align=center;verticalAlign=middle;resizable=0;points=[];autosize=1;strokeColor=none;fillColor=none;" vertex="1" parent="1">
          <mxGeometry x="265" y="400" width="110" height="20" as="geometry" />
        </mxCell>
        <mxCell id="PDaBnYN8Vk6k7MnPb_Y9-50" value="" style="sketch=0;outlineConnect=0;fontColor=#232F3E;gradientColor=none;fillColor=#2E27AD;strokeColor=none;dashed=0;verticalLabelPosition=bottom;verticalAlign=top;align=center;html=1;fontSize=12;fontStyle=0;aspect=fixed;pointerEvents=1;shape=mxgraph.aws4.rds_mysql_instance;" vertex="1" parent="1">
          <mxGeometry x="772" y="291" width="78" height="78" as="geometry" />
        </mxCell>
        <mxCell id="PDaBnYN8Vk6k7MnPb_Y9-56" value="" style="endArrow=classic;startArrow=classic;html=1;rounded=0;entryX=1;entryY=1;entryDx=0;entryDy=0;" edge="1" parent="1" source="PDaBnYN8Vk6k7MnPb_Y9-50" target="PDaBnYN8Vk6k7MnPb_Y9-18">
          <mxGeometry width="50" height="50" relative="1" as="geometry">
            <mxPoint x="790" y="220" as="sourcePoint" />
            <mxPoint x="600" y="270" as="targetPoint" />
          </mxGeometry>
        </mxCell>
        <mxCell id="PDaBnYN8Vk6k7MnPb_Y9-57" value="" style="endArrow=classic;startArrow=classic;html=1;rounded=0;exitX=1;exitY=0.5;exitDx=0;exitDy=0;" edge="1" parent="1" source="PDaBnYN8Vk6k7MnPb_Y9-26" target="PDaBnYN8Vk6k7MnPb_Y9-50">
          <mxGeometry width="50" height="50" relative="1" as="geometry">
            <mxPoint x="550" y="320" as="sourcePoint" />
            <mxPoint x="600" y="270" as="targetPoint" />
          </mxGeometry>
        </mxCell>
        <mxCell id="PDaBnYN8Vk6k7MnPb_Y9-58" value="" style="endArrow=classic;startArrow=classic;html=1;rounded=0;exitX=1;exitY=0;exitDx=0;exitDy=0;" edge="1" parent="1" source="PDaBnYN8Vk6k7MnPb_Y9-33" target="PDaBnYN8Vk6k7MnPb_Y9-50">
          <mxGeometry width="50" height="50" relative="1" as="geometry">
            <mxPoint x="550" y="320" as="sourcePoint" />
            <mxPoint x="600" y="270" as="targetPoint" />
          </mxGeometry>
        </mxCell>
      </root>
    </mxGraphModel>
  </diagram>
</mxfile>
